<svg width="343" height="74" viewBox="0 0 343 74" fill="none" xmlns="http://www.w3.org/2000/svg">
<rect x="120" y="72" width="98" height="2" fill="#7A58FF"/>
<rect x="120" y="72" width="98" height="2" fill="black" fill-opacity="0.2"/>
<path d="M35.79 24H44.16L37.26 45H25.68L22.23 32.91L18.78 45H7.2L0.3 24H8.67L13.02 38.82L17.58 24H26.88L31.44 38.82L35.79 24ZM65.1727 24H72.9727V45H65.1727V37.8H52.8727V45H45.0727V24H52.8727V31.2H65.1727V24ZM84.5445 38.1L73.8645 24H82.8645L88.4445 31.8L94.0245 24H103.024L92.3445 38.1V45H84.5445V38.1ZM115.642 34.47C115.642 27.18 119.602 23.7 128.842 23.7C137.242 23.7 141.622 26.64 141.952 33.27H133.972C133.672 31.29 132.142 30.3 128.842 30.3C124.222 30.3 123.442 32.25 123.442 34.47C123.442 36.72 124.252 38.7 128.842 38.7C132.142 38.7 133.672 37.68 133.972 35.67H141.952C141.622 42.33 137.272 45.3 128.842 45.3C119.602 45.3 115.642 41.79 115.642 34.47ZM162.966 24H170.766V45H162.966V37.8H150.666V45H142.866V24H150.666V31.2H162.966V24ZM184.564 45.3C175.324 45.3 171.364 41.79 171.364 34.47C171.364 27.18 175.324 23.7 184.564 23.7C193.774 23.7 197.764 27.21 197.764 34.47C197.764 41.76 193.774 45.3 184.564 45.3ZM184.564 38.7C189.154 38.7 189.964 36.69 189.964 34.47C189.964 32.28 189.184 30.3 184.564 30.3C179.944 30.3 179.164 32.25 179.164 34.47C179.164 36.72 179.974 38.7 184.564 38.7ZM211.576 45.3C202.336 45.3 198.376 41.79 198.376 34.47C198.376 27.18 202.336 23.7 211.576 23.7C220.786 23.7 224.776 27.21 224.776 34.47C224.776 41.76 220.786 45.3 211.576 45.3ZM211.576 38.7C216.166 38.7 216.976 36.69 216.976 34.47C216.976 32.28 216.196 30.3 211.576 30.3C206.956 30.3 206.176 32.25 206.176 34.47C206.176 36.72 206.986 38.7 211.576 38.7ZM225.388 37.59H233.188C233.188 38.61 234.148 39.3 239.098 39.3C243.718 39.3 244.408 39 244.408 38.22C244.408 37.32 243.718 37.2 238.798 37.05C229.318 36.75 225.688 35.19 225.688 30.3C225.688 25.68 230.218 23.7 238.498 23.7C246.688 23.7 251.308 25.68 251.308 31.05H243.508C243.508 29.94 241.708 29.7 237.898 29.7C234.238 29.7 233.488 29.88 233.488 30.69C233.488 31.5 234.238 31.47 238.798 31.65C247.078 31.98 252.208 32.55 252.208 38.04C252.208 43.83 247.408 45.3 238.798 45.3C230.188 45.3 225.388 43.83 225.388 37.59ZM275.31 30H260.91V31.95H275.31V37.05H260.91V39H275.31V45H253.11V24H275.31V30ZM314.607 34.47C314.607 41.76 310.617 45.3 301.407 45.3C292.167 45.3 288.207 41.79 288.207 34.47V24H296.007V34.47C296.007 36.72 296.817 38.7 301.407 38.7C305.997 38.7 306.807 36.69 306.807 34.47V24H314.607V34.47ZM315.505 37.59H323.305C323.305 38.61 324.265 39.3 329.215 39.3C333.835 39.3 334.525 39 334.525 38.22C334.525 37.32 333.835 37.2 328.915 37.05C319.435 36.75 315.805 35.19 315.805 30.3C315.805 25.68 320.335 23.7 328.615 23.7C336.805 23.7 341.425 25.68 341.425 31.05H333.625C333.625 29.94 331.825 29.7 328.015 29.7C324.355 29.7 323.605 29.88 323.605 30.69C323.605 31.5 324.355 31.47 328.915 31.65C337.195 31.98 342.325 32.55 342.325 38.04C342.325 43.83 337.525 45.3 328.915 45.3C320.305 45.3 315.505 43.83 315.505 37.59Z" fill="white"/>
</svg>
