<svg width="214" height="46" viewBox="0 0 214 46" fill="none" xmlns="http://www.w3.org/2000/svg">
<path d="M24.32 13.64H8.96V16.04H22.4V23.08H8.96V29H0.64V6.6H24.32V13.64ZM48.945 13H33.585V15.08H48.945V20.52H33.585V22.6H48.945V29H25.265V6.6H48.945V13ZM71.33 29L69.794 24.968H60.258L58.722 29H49.57L58.85 6.6H71.202L80.482 29H71.33ZM62.434 19.208H67.618L65.026 12.36L62.434 19.208ZM103.215 6.6V13.64H93.615V29H85.295V13.64H75.695V6.6H103.215ZM132.331 17.768C132.331 25.544 128.075 29.32 118.251 29.32C108.395 29.32 104.171 25.576 104.171 17.768V6.6H112.491V17.768C112.491 20.168 113.355 22.28 118.251 22.28C123.147 22.28 124.011 20.136 124.011 17.768V6.6H132.331V17.768ZM159.785 15.176C159.785 18.44 158.281 21.128 155.817 22.568L159.785 29H149.929L146.825 23.752H141.929V29H133.609V6.6H151.209C156.297 6.6 159.785 10.184 159.785 15.176ZM141.929 13.64V16.712H149.609C150.441 16.712 151.465 16.712 151.465 15.176C151.465 13.64 150.441 13.64 149.609 13.64H141.929ZM184.414 13H169.054V15.08H184.414V20.52H169.054V22.6H184.414V29H160.734V6.6H184.414V13ZM185.039 21.096H193.359C193.359 22.184 194.383 22.92 199.663 22.92C204.591 22.92 205.327 22.6 205.327 21.768C205.327 20.808 204.591 20.68 199.343 20.52C189.231 20.2 185.359 18.536 185.359 13.32C185.359 8.392 190.191 6.28 199.023 6.28C207.759 6.28 212.687 8.392 212.687 14.12H204.367C204.367 12.936 202.447 12.68 198.383 12.68C194.479 12.68 193.679 12.872 193.679 13.736C193.679 14.6 194.479 14.568 199.343 14.76C208.175 15.112 213.647 15.72 213.647 21.576C213.647 27.752 208.527 29.32 199.343 29.32C190.159 29.32 185.039 27.752 185.039 21.096Z" fill="white"/>
<rect x="58" y="44" width="98" height="2" fill="#7A58FF"/>
<rect x="58" y="44" width="98" height="2" fill="black" fill-opacity="0.2"/>
</svg>
