<svg width="307" height="47" viewBox="0 0 307 47" fill="none" xmlns="http://www.w3.org/2000/svg">
<path d="M8.96 6.6V29H0.64V6.6H8.96ZM30.7778 6.6H39.0978V29H28.2178L18.5538 15.784V29H10.2338V6.6H21.1138L30.7778 19.816V6.6ZM67.59 6.6V13.64H57.99V29H49.67V13.64H40.07V6.6H67.59ZM94.7223 15.176C94.7223 18.44 93.2183 21.128 90.7543 22.568L94.7223 29H84.8663L81.7623 23.752H76.8663V29H68.5463V6.6H86.1463C91.2343 6.6 94.7223 10.184 94.7223 15.176ZM76.8663 13.64V16.712H84.5463C85.3783 16.712 86.4023 16.712 86.4023 15.176C86.4023 13.64 85.3783 13.64 84.5463 13.64H76.8663ZM109.431 29.32C99.5753 29.32 95.3513 25.576 95.3513 17.768C95.3513 9.992 99.5753 6.28 109.431 6.28C119.255 6.28 123.511 10.024 123.511 17.768C123.511 25.544 119.255 29.32 109.431 29.32ZM109.431 22.28C114.327 22.28 115.191 20.136 115.191 17.768C115.191 15.432 114.359 13.32 109.431 13.32C104.503 13.32 103.671 15.4 103.671 17.768C103.671 20.168 104.535 22.28 109.431 22.28ZM141.124 6.6C146.532 6.6 151.62 10.184 151.62 17.8C151.62 25.416 146.532 29 141.124 29H124.484V6.6H141.124ZM138.564 21.96C140.356 21.96 143.3 21.96 143.3 17.8C143.3 13.64 140.356 13.64 138.564 13.64H132.804V21.96H138.564ZM180.738 17.768C180.738 25.544 176.482 29.32 166.658 29.32C156.802 29.32 152.578 25.576 152.578 17.768V6.6H160.898V17.768C160.898 20.168 161.762 22.28 166.658 22.28C171.554 22.28 172.418 20.136 172.418 17.768V6.6H180.738V17.768ZM181.695 17.768C181.695 9.992 185.919 6.28 195.775 6.28C204.735 6.28 209.407 9.416 209.759 16.488H201.247C200.927 14.376 199.295 13.32 195.775 13.32C190.847 13.32 190.015 15.4 190.015 17.768C190.015 20.168 190.879 22.28 195.775 22.28C199.295 22.28 200.927 21.192 201.247 19.048H209.759C209.407 26.152 204.767 29.32 195.775 29.32C185.919 29.32 181.695 25.576 181.695 17.768ZM237.621 6.6V13.64H228.021V29H219.701V13.64H210.101V6.6H237.621ZM246.898 6.6V29H238.578V6.6H246.898ZM261.619 29.32C251.763 29.32 247.539 25.576 247.539 17.768C247.539 9.992 251.763 6.28 261.619 6.28C271.443 6.28 275.699 10.024 275.699 17.768C275.699 25.544 271.443 29.32 261.619 29.32ZM261.619 22.28C266.515 22.28 267.379 20.136 267.379 17.768C267.379 15.432 266.547 13.32 261.619 13.32C256.691 13.32 255.859 15.4 255.859 17.768C255.859 20.168 256.723 22.28 261.619 22.28ZM297.215 6.6H305.535V29H294.655L284.991 15.784V29H276.671V6.6H287.551L297.215 19.816V6.6Z" fill="white"/>
<rect x="104" y="45" width="98" height="2" fill="#7A58FF"/>
<rect x="104" y="45" width="98" height="2" fill="black" fill-opacity="0.2"/>
</svg>
