<svg width="171" height="41" viewBox="0 0 171 41" fill="none" xmlns="http://www.w3.org/2000/svg">
<rect x="36" y="39" width="98" height="2" fill="#7A58FF"/>
<rect x="36" y="39" width="98" height="2" fill="black" fill-opacity="0.2"/>
<path d="M162.325 0.319824H170.645V22.7198H159.765L150.101 9.50383V22.7198H141.781V0.319824H152.661L162.325 13.5358V0.319824Z" fill="white"/>
<path d="M126.729 23.04C116.873 23.04 112.649 19.296 112.649 11.488C112.649 3.712 116.873 0 126.729 0C136.553 0 140.809 3.744 140.809 11.488C140.809 19.264 136.553 23.04 126.729 23.04ZM126.729 16C131.625 16 132.489 13.856 132.489 11.488C132.489 9.152 131.657 7.04 126.729 7.04C121.801 7.04 120.969 9.12 120.969 11.488C120.969 13.888 121.833 16 126.729 16Z" fill="white"/>
<path d="M112.007 0.319824V22.7198H103.688V0.319824H112.007Z" fill="white"/>
<path d="M74.1177 14.816H82.4377C82.4377 15.904 83.4617 16.64 88.7417 16.64C93.6697 16.64 94.4057 16.32 94.4057 15.488C94.4057 14.528 93.6697 14.4 88.4217 14.24C78.3097 13.92 74.4377 12.256 74.4377 7.04C74.4377 2.112 79.2697 0 88.1017 0C96.8377 0 101.766 2.112 101.766 7.84H93.4457C93.4457 6.656 91.5257 6.4 87.4617 6.4C83.5577 6.4 82.7577 6.592 82.7577 7.456C82.7577 8.32 83.5577 8.288 88.4217 8.48C97.2537 8.832 102.726 9.44 102.726 15.296C102.726 21.472 97.6057 23.04 88.4217 23.04C79.2377 23.04 74.1177 21.472 74.1177 14.816Z" fill="white"/>
<path d="M44.8677 14.816H53.1877C53.1877 15.904 54.2117 16.64 59.4917 16.64C64.4197 16.64 65.1557 16.32 65.1557 15.488C65.1557 14.528 64.4197 14.4 59.1717 14.24C49.0597 13.92 45.1877 12.256 45.1877 7.04C45.1877 2.112 50.0197 0 58.8517 0C67.5877 0 72.5157 2.112 72.5157 7.84H64.1957C64.1957 6.656 62.2757 6.4 58.2117 6.4C54.3077 6.4 53.5077 6.592 53.5077 7.456C53.5077 8.32 54.3077 8.288 59.1717 8.48C68.0037 8.832 73.4757 9.44 73.4757 15.296C73.4757 21.472 68.3557 23.04 59.1717 23.04C49.9877 23.04 44.8677 21.472 44.8677 14.816Z" fill="white"/>
<path d="M43.9137 0.319824V22.7198H35.5938V0.319824H43.9137Z" fill="white"/>
<path d="M34.304 0.319824V22.7198H25.984V12.0638L19.872 22.7198H14.432L8.32 12.0638V22.7198H0V0.319824H10.24L17.152 13.1198L24.064 0.319824H34.304Z" fill="white"/>
</svg>
