<svg width="138" height="41" viewBox="0 0 138 41" fill="none" xmlns="http://www.w3.org/2000/svg">
<rect x="20" y="39" width="98" height="2" fill="#7A58FF"/>
<rect x="20" y="39" width="98" height="2" fill="black" fill-opacity="0.2"/>
<path d="M129.052 0.319824H137.372V22.7198H126.492L116.828 9.50383V22.7198H108.508V0.319824H119.388L129.052 13.5358V0.319824Z" fill="white"/>
<path d="M93.455 23.04C83.599 23.04 79.375 19.296 79.375 11.488C79.375 3.712 83.599 0 93.455 0C103.279 0 107.535 3.744 107.535 11.488C107.535 19.264 103.279 23.04 93.455 23.04ZM93.455 16C98.351 16 99.215 13.856 99.215 11.488C99.215 9.152 98.383 7.04 93.455 7.04C88.527 7.04 87.695 9.12 87.695 11.488C87.695 13.888 88.559 16 93.455 16Z" fill="white"/>
<path d="M78.7336 0.319824V22.7198H70.4136V0.319824H78.7336Z" fill="white"/>
<path d="M40.8438 14.816H49.1637C49.1637 15.904 50.1878 16.64 55.4678 16.64C60.3958 16.64 61.1318 16.32 61.1318 15.488C61.1318 14.528 60.3958 14.4 55.1478 14.24C45.0358 13.92 41.1637 12.256 41.1637 7.04C41.1637 2.112 45.9958 0 54.8278 0C63.5638 0 68.4918 2.112 68.4918 7.84H60.1718C60.1718 6.656 58.2518 6.4 54.1878 6.4C50.2838 6.4 49.4837 6.592 49.4837 7.456C49.4837 8.32 50.2838 8.288 55.1478 8.48C63.9798 8.832 69.4518 9.44 69.4518 15.296C69.4518 21.472 64.3318 23.04 55.1478 23.04C45.9638 23.04 40.8438 21.472 40.8438 14.816Z" fill="white"/>
<path d="M39.8898 0.319824V22.7198H31.5698V0.319824H39.8898Z" fill="white"/>
<path d="M21.76 0.319824H30.912L21.632 22.7198H9.28L0 0.319824H9.152L15.456 16.9598L21.76 0.319824Z" fill="white"/>
</svg>
