<svg width="485" height="131" viewBox="0 0 485 131" fill="none" xmlns="http://www.w3.org/2000/svg">
<path d="M47.72 4H58.88L49.68 32H34.24L29.64 15.88L25.04 32H9.6L0.4 4H11.56L17.36 23.76L23.44 4H35.84L41.92 23.76L47.72 4ZM71.6325 24.8C75.1125 24.8 76.5125 24.56 78.4725 23H87.8725C86.6725 29.36 81.5125 32.4 71.6325 32.4C62.2325 32.4 55.7125 28.88 55.7125 20C55.7125 11.12 62.2325 7.6 72.0325 7.6C81.9125 7.6 88.2725 11.12 88.2725 21.6H65.5125C66.3125 24.16 68.9925 24.8 71.6325 24.8ZM71.9925 14.4C69.4325 14.4 67.0325 14.64 65.9525 16.8H78.0325C76.9525 14.64 74.5525 14.4 71.9925 14.4ZM89.4719 -4.76837e-07H99.0719V32H89.4719V-4.76837e-07ZM100.283 20C100.283 11.12 106.403 7.6 116.603 7.6C126.083 7.6 132.043 10.64 132.843 18.2H123.043C122.283 16.16 120.043 15.6 116.603 15.6C112.323 15.6 109.883 16.48 109.883 20C109.883 23.52 112.323 24.4 116.603 24.4C120.043 24.4 122.283 23.84 123.043 21.8H132.843C132.043 29.36 126.083 32.4 116.603 32.4C106.403 32.4 100.283 28.88 100.283 20ZM149.962 32.4C139.762 32.4 133.642 28.88 133.642 20C133.642 11.12 139.762 7.6 149.962 7.6C160.162 7.6 166.282 11.12 166.282 20C166.282 28.88 160.162 32.4 149.962 32.4ZM149.962 24.4C154.242 24.4 156.682 23.52 156.682 20C156.682 16.48 154.242 15.6 149.962 15.6C145.682 15.6 143.242 16.48 143.242 20C143.242 23.52 145.682 24.4 149.962 24.4ZM208.6 7.6C212.8 7.6 218.52 9.28 218.52 17.56V32H208.92V21.88C208.92 17.76 207.84 16 204.32 16C201.88 16 199.84 17.04 197.8 19.04V32H188.2V21.88C188.2 17.76 187.12 16 183.6 16C181.16 16 179.12 17.04 177.08 19.04V32H167.48V8H177.08V12C179.2 10 182.04 7.6 187.88 7.6C190.88 7.6 194.68 8.48 196.56 12C199.08 9.6 202.76 7.6 208.6 7.6ZM235.265 24.8C238.745 24.8 240.145 24.56 242.105 23H251.505C250.305 29.36 245.145 32.4 235.265 32.4C225.865 32.4 219.345 28.88 219.345 20C219.345 11.12 225.865 7.6 235.665 7.6C245.545 7.6 251.905 11.12 251.905 21.6H229.145C229.945 24.16 232.625 24.8 235.265 24.8ZM235.625 14.4C233.065 14.4 230.665 14.64 229.585 16.8H241.665C240.585 14.64 238.185 14.4 235.625 14.4ZM292.96 16H283.16V20.96C283.16 23.24 284.04 24.4 286.84 24.4C289 24.4 290.2 24.4 292.96 24V31.8C290.68 32.2 287.84 32.4 284.68 32.4C277.24 32.4 273.56 30.12 273.56 24.92V16H268.72V8H273.56V4L283.16 1.6V8H292.96V16ZM310.079 32.4C299.879 32.4 293.759 28.88 293.759 20C293.759 11.12 299.879 7.6 310.079 7.6C320.279 7.6 326.399 11.12 326.399 20C326.399 28.88 320.279 32.4 310.079 32.4ZM310.079 24.4C314.359 24.4 316.799 23.52 316.799 20C316.799 16.48 314.359 15.6 310.079 15.6C305.799 15.6 303.359 16.48 303.359 20C303.359 23.52 305.799 24.4 310.079 24.4ZM327.597 24.8H337.197V32L332.677 40.8H328.397L331.117 32H327.597V24.8Z" fill="white"/>
<path d="M31.05 86L28.89 80.33H15.48L13.32 86H0.45L13.5 54.5H30.87L43.92 86H31.05ZM18.54 72.23H25.83L22.185 62.6L18.54 72.23ZM59.8268 75.155V68.855H80.2568V86H73.5068L72.6518 81.455C69.9968 84.56 65.8568 86.45 59.2418 86.45C47.6318 86.45 40.7918 81.185 40.7918 70.205C40.7918 59.27 47.6318 54.05 60.5918 54.05C73.1918 54.05 79.7618 58.46 80.2568 67.055H68.2868C67.8368 65.435 65.5418 63.95 60.5918 63.95C53.6618 63.95 52.4918 66.875 52.4918 70.655C52.4918 74.48 53.7068 77.9 60.5918 77.9C65.0918 77.9 67.8368 77.27 68.2868 75.155H59.8268ZM111.778 86L109.618 80.33H96.2075L94.0475 86H81.1775L94.2275 54.5H111.598L124.648 86H111.778ZM99.2675 72.23H106.558L102.913 62.6L99.2675 72.23ZM156.616 54.5V64.4H143.116V86H131.416V64.4H117.916V54.5H156.616ZM188.111 54.5H199.811V86H188.111V75.2H169.661V86H157.961V54.5H169.661V65.3H188.111V54.5ZM231.309 86L229.149 80.33H215.739L213.579 86H200.709L213.759 54.5H231.129L244.179 86H231.309ZM218.799 72.23H226.089L222.444 62.6L218.799 72.23Z" fill="url(#paint0_linear_0_1)"/>
<path d="M9.28 129.52C8.45333 128.173 7.80667 126.767 7.34 125.3C6.87333 123.82 6.64 122.2 6.64 120.44C6.64 118.68 6.87333 117.06 7.34 115.58C7.80667 114.1 8.45333 112.693 9.28 111.36L10.3 111.84C9.52667 113.107 8.94667 114.48 8.56 115.96C8.18667 117.427 8 118.92 8 120.44C8 121.96 8.18667 123.46 8.56 124.94C8.94667 126.407 9.52667 127.773 10.3 129.04L9.28 129.52ZM15.1147 118.66L14.4947 120.66H18.4347L17.8147 118.66C17.5747 117.927 17.348 117.2 17.1347 116.48C16.9214 115.747 16.708 115 16.4947 114.24H16.4147C16.2147 115 16.008 115.747 15.7947 116.48C15.5814 117.2 15.3547 117.927 15.1147 118.66ZM11.1147 126L15.5547 112.88H17.4347L21.8747 126H20.0947L18.8547 122H14.0747L12.8147 126H11.1147ZM26.8936 126.24C25.6803 126.24 24.7069 125.8 23.9736 124.92C23.2403 124.027 22.8736 122.773 22.8736 121.16C22.8736 120.107 23.0669 119.2 23.4536 118.44C23.8536 117.667 24.3736 117.073 25.0136 116.66C25.6669 116.247 26.3603 116.04 27.0936 116.04C27.6536 116.04 28.1403 116.14 28.5536 116.34C28.9669 116.54 29.3869 116.813 29.8136 117.16L29.7336 115.5V111.76H31.3936V126H30.0336L29.8936 124.86H29.8336C29.4603 125.233 29.0203 125.56 28.5136 125.84C28.0069 126.107 27.4669 126.24 26.8936 126.24ZM27.2536 124.86C28.1069 124.86 28.9336 124.413 29.7336 123.52V118.44C29.3203 118.067 28.9203 117.807 28.5336 117.66C28.1603 117.5 27.7736 117.42 27.3736 117.42C26.8536 117.42 26.3803 117.58 25.9536 117.9C25.5403 118.207 25.2069 118.64 24.9536 119.2C24.7003 119.747 24.5736 120.393 24.5736 121.14C24.5736 122.3 24.8069 123.213 25.2736 123.88C25.7403 124.533 26.4003 124.86 27.2536 124.86ZM36.9073 126.24C36.094 126.24 35.414 126 34.8673 125.52C34.334 125.027 34.0673 124.347 34.0673 123.48C34.0673 122.413 34.5407 121.6 35.4873 121.04C36.4473 120.467 37.9607 120.067 40.0273 119.84C40.0273 119.427 39.9673 119.033 39.8473 118.66C39.7407 118.287 39.5407 117.987 39.2473 117.76C38.9673 117.52 38.5607 117.4 38.0273 117.4C37.4673 117.4 36.9407 117.507 36.4473 117.72C35.954 117.933 35.514 118.173 35.1273 118.44L34.4873 117.3C34.9407 117.007 35.494 116.727 36.1473 116.46C36.814 116.18 37.534 116.04 38.3073 116.04C39.494 116.04 40.354 116.407 40.8873 117.14C41.4207 117.86 41.6873 118.827 41.6873 120.04V126H40.3273L40.1873 124.84H40.1273C39.674 125.213 39.174 125.54 38.6273 125.82C38.094 126.1 37.5207 126.24 36.9073 126.24ZM37.3873 124.92C37.854 124.92 38.294 124.807 38.7073 124.58C39.1207 124.353 39.5607 124.033 40.0273 123.62V120.92C38.414 121.12 37.2807 121.42 36.6273 121.82C35.9873 122.22 35.6673 122.733 35.6673 123.36C35.6673 123.907 35.834 124.307 36.1673 124.56C36.5007 124.8 36.9073 124.92 37.3873 124.92ZM44.7455 130.1V116.28H46.1055L46.2455 117.4H46.3055C46.7455 117.027 47.2255 116.707 47.7455 116.44C48.2788 116.173 48.8321 116.04 49.4055 116.04C50.6588 116.04 51.6121 116.493 52.2655 117.4C52.9188 118.293 53.2455 119.493 53.2455 121C53.2455 122.093 53.0455 123.033 52.6455 123.82C52.2588 124.607 51.7455 125.207 51.1055 125.62C50.4788 126.033 49.7921 126.24 49.0455 126.24C48.5921 126.24 48.1388 126.14 47.6855 125.94C47.2455 125.74 46.7988 125.467 46.3455 125.12L46.3855 126.82V130.1H44.7455ZM48.7655 124.86C49.5655 124.86 50.2255 124.52 50.7455 123.84C51.2788 123.147 51.5455 122.2 51.5455 121C51.5455 119.933 51.3455 119.073 50.9455 118.42C50.5588 117.753 49.9055 117.42 48.9855 117.42C48.5721 117.42 48.1521 117.533 47.7255 117.76C47.3121 117.987 46.8655 118.313 46.3855 118.74V123.84C46.8255 124.213 47.2521 124.48 47.6655 124.64C48.0788 124.787 48.4455 124.86 48.7655 124.86ZM58.5672 126.24C57.5272 126.24 56.8005 125.94 56.3872 125.34C55.9872 124.74 55.7872 123.96 55.7872 123V117.62H54.3472V116.38L55.8672 116.28L56.0672 113.56H57.4472V116.28H60.0672V117.62H57.4472V123.02C57.4472 123.62 57.5539 124.087 57.7672 124.42C57.9939 124.74 58.3872 124.9 58.9472 124.9C59.1205 124.9 59.3072 124.873 59.5072 124.82C59.7072 124.753 59.8872 124.693 60.0472 124.64L60.3672 125.88C60.1005 125.973 59.8072 126.053 59.4872 126.12C59.1805 126.2 58.8739 126.24 58.5672 126.24ZM62.265 126V116.28H63.905V126H62.265ZM63.105 114.28C62.785 114.28 62.5183 114.187 62.305 114C62.105 113.8 62.005 113.533 62.005 113.2C62.005 112.88 62.105 112.62 62.305 112.42C62.5183 112.22 62.785 112.12 63.105 112.12C63.425 112.12 63.685 112.22 63.885 112.42C64.0983 112.62 64.205 112.88 64.205 113.2C64.205 113.533 64.0983 113.8 63.885 114C63.685 114.187 63.425 114.28 63.105 114.28ZM69.2869 126L65.7869 116.28H67.4869L69.3269 121.8C69.4735 122.28 69.6202 122.76 69.7669 123.24C69.9269 123.72 70.0802 124.193 70.2269 124.66H70.3069C70.4535 124.193 70.6002 123.72 70.7469 123.24C70.9069 122.76 71.0535 122.28 71.1869 121.8L73.0269 116.28H74.6469L71.2069 126H69.2869ZM80.3847 126.24C79.518 126.24 78.7314 126.04 78.0247 125.64C77.318 125.227 76.758 124.64 76.3447 123.88C75.9314 123.12 75.7247 122.213 75.7247 121.16C75.7247 120.093 75.9314 119.18 76.3447 118.42C76.7714 117.66 77.318 117.073 77.9847 116.66C78.6514 116.247 79.3514 116.04 80.0847 116.04C81.3247 116.04 82.278 116.453 82.9447 117.28C83.6247 118.107 83.9647 119.213 83.9647 120.6C83.9647 120.773 83.958 120.947 83.9447 121.12C83.9447 121.28 83.9314 121.42 83.9047 121.54H77.3447C77.4114 122.567 77.7314 123.387 78.3047 124C78.8914 124.613 79.6514 124.92 80.5847 124.92C81.0514 124.92 81.478 124.853 81.8647 124.72C82.2647 124.573 82.6447 124.387 83.0047 124.16L83.5847 125.24C83.1714 125.507 82.698 125.74 82.1647 125.94C81.6447 126.14 81.0514 126.24 80.3847 126.24ZM77.3247 120.36H82.5247C82.5247 119.373 82.3114 118.627 81.8847 118.12C81.4714 117.6 80.8847 117.34 80.1247 117.34C79.4447 117.34 78.8314 117.607 78.2847 118.14C77.7514 118.66 77.4314 119.4 77.3247 120.36ZM95.6905 126.24C94.5438 126.24 93.5238 125.973 92.6305 125.44C91.7371 124.893 91.0371 124.113 90.5305 123.1C90.0238 122.087 89.7705 120.867 89.7705 119.44C89.7705 118.027 90.0305 116.813 90.5505 115.8C91.0705 114.787 91.7838 114.007 92.6905 113.46C93.5971 112.913 94.6305 112.64 95.7905 112.64C96.6971 112.64 97.4571 112.813 98.0705 113.16C98.6971 113.493 99.1971 113.86 99.5705 114.26L98.6505 115.34C98.3171 114.993 97.9305 114.7 97.4905 114.46C97.0505 114.22 96.4971 114.1 95.8305 114.1C94.9505 114.1 94.1838 114.32 93.5305 114.76C92.8771 115.187 92.3705 115.793 92.0105 116.58C91.6638 117.367 91.4905 118.307 91.4905 119.4C91.4905 121.053 91.8638 122.367 92.6105 123.34C93.3705 124.3 94.4505 124.78 95.8505 124.78C96.3171 124.78 96.7638 124.713 97.1905 124.58C97.6171 124.433 97.9571 124.24 98.2105 124V120.58H95.4305V119.2H99.7305V124.72C99.3171 125.16 98.7571 125.527 98.0505 125.82C97.3571 126.1 96.5705 126.24 95.6905 126.24ZM104.454 126.24C103.841 126.24 103.394 126.053 103.114 125.68C102.848 125.293 102.714 124.747 102.714 124.04V111.76H104.354V124.16C104.354 124.413 104.401 124.6 104.494 124.72C104.588 124.827 104.694 124.88 104.814 124.88C104.868 124.88 104.914 124.88 104.954 124.88C105.008 124.867 105.081 124.853 105.174 124.84L105.394 126.08C105.288 126.133 105.161 126.173 105.014 126.2C104.868 126.227 104.681 126.24 104.454 126.24ZM111.592 126.24C110.805 126.24 110.065 126.04 109.372 125.64C108.692 125.24 108.139 124.66 107.712 123.9C107.299 123.14 107.092 122.227 107.092 121.16C107.092 120.067 107.299 119.14 107.712 118.38C108.139 117.62 108.692 117.04 109.372 116.64C110.065 116.24 110.805 116.04 111.592 116.04C112.392 116.04 113.132 116.24 113.812 116.64C114.492 117.04 115.039 117.62 115.452 118.38C115.879 119.14 116.092 120.067 116.092 121.16C116.092 122.227 115.879 123.14 115.452 123.9C115.039 124.66 114.492 125.24 113.812 125.64C113.132 126.04 112.392 126.24 111.592 126.24ZM111.592 124.88C112.432 124.88 113.105 124.54 113.612 123.86C114.132 123.167 114.392 122.267 114.392 121.16C114.392 120.04 114.132 119.133 113.612 118.44C113.105 117.747 112.432 117.4 111.592 117.4C110.765 117.4 110.092 117.747 109.572 118.44C109.052 119.133 108.792 120.04 108.792 121.16C108.792 122.267 109.052 123.167 109.572 123.86C110.092 124.54 110.765 124.88 111.592 124.88ZM122.952 126.24C122.498 126.24 122.025 126.133 121.532 125.92C121.052 125.693 120.598 125.387 120.172 125H120.112L119.972 126H118.652V111.76H120.292V115.64L120.252 117.4C120.692 117.013 121.172 116.693 121.692 116.44C122.225 116.173 122.758 116.04 123.292 116.04C124.558 116.04 125.518 116.487 126.172 117.38C126.825 118.273 127.152 119.473 127.152 120.98C127.152 122.087 126.952 123.033 126.552 123.82C126.165 124.607 125.652 125.207 125.012 125.62C124.385 126.033 123.698 126.24 122.952 126.24ZM122.672 124.86C123.472 124.86 124.132 124.52 124.652 123.84C125.185 123.147 125.452 122.2 125.452 121C125.452 119.933 125.252 119.073 124.852 118.42C124.465 117.753 123.812 117.42 122.892 117.42C122.478 117.42 122.058 117.533 121.632 117.76C121.205 117.987 120.758 118.313 120.292 118.74V123.84C120.718 124.213 121.138 124.48 121.552 124.64C121.978 124.787 122.352 124.86 122.672 124.86ZM131.673 126.24C130.86 126.24 130.18 126 129.633 125.52C129.1 125.027 128.833 124.347 128.833 123.48C128.833 122.413 129.306 121.6 130.253 121.04C131.213 120.467 132.726 120.067 134.793 119.84C134.793 119.427 134.733 119.033 134.613 118.66C134.506 118.287 134.306 117.987 134.013 117.76C133.733 117.52 133.326 117.4 132.793 117.4C132.233 117.4 131.706 117.507 131.213 117.72C130.72 117.933 130.28 118.173 129.893 118.44L129.253 117.3C129.706 117.007 130.26 116.727 130.913 116.46C131.58 116.18 132.3 116.04 133.073 116.04C134.26 116.04 135.12 116.407 135.653 117.14C136.186 117.86 136.453 118.827 136.453 120.04V126H135.093L134.953 124.84H134.893C134.44 125.213 133.94 125.54 133.393 125.82C132.86 126.1 132.286 126.24 131.673 126.24ZM132.153 124.92C132.62 124.92 133.06 124.807 133.473 124.58C133.886 124.353 134.326 124.033 134.793 123.62V120.92C133.18 121.12 132.046 121.42 131.393 121.82C130.753 122.22 130.433 122.733 130.433 123.36C130.433 123.907 130.6 124.307 130.933 124.56C131.266 124.8 131.673 124.92 132.153 124.92ZM141.251 126.24C140.638 126.24 140.191 126.053 139.911 125.68C139.644 125.293 139.511 124.747 139.511 124.04V111.76H141.151V124.16C141.151 124.413 141.198 124.6 141.291 124.72C141.384 124.827 141.491 124.88 141.611 124.88C141.664 124.88 141.711 124.88 141.751 124.88C141.804 124.867 141.878 124.853 141.971 124.84L142.191 126.08C142.084 126.133 141.958 126.173 141.811 126.2C141.664 126.227 141.478 126.24 141.251 126.24ZM151.033 118.66L150.413 120.66H154.353L153.733 118.66C153.493 117.927 153.266 117.2 153.053 116.48C152.839 115.747 152.626 115 152.413 114.24H152.333C152.133 115 151.926 115.747 151.713 116.48C151.499 117.2 151.273 117.927 151.033 118.66ZM147.033 126L151.473 112.88H153.353L157.793 126H156.013L154.773 122H149.993L148.733 126H147.033ZM159.492 126V116.28H160.852L160.992 118.04H161.052C161.385 117.427 161.792 116.94 162.272 116.58C162.752 116.22 163.265 116.04 163.812 116.04C164.198 116.04 164.545 116.107 164.852 116.24L164.532 117.68C164.372 117.627 164.225 117.587 164.092 117.56C163.958 117.533 163.792 117.52 163.592 117.52C163.178 117.52 162.745 117.687 162.292 118.02C161.852 118.353 161.465 118.933 161.132 119.76V126H159.492ZM169.485 126.24C168.445 126.24 167.718 125.94 167.305 125.34C166.905 124.74 166.705 123.96 166.705 123V117.62H165.265V116.38L166.785 116.28L166.985 113.56H168.365V116.28H170.985V117.62H168.365V123.02C168.365 123.62 168.472 124.087 168.685 124.42C168.912 124.74 169.305 124.9 169.865 124.9C170.038 124.9 170.225 124.873 170.425 124.82C170.625 124.753 170.805 124.693 170.965 124.64L171.285 125.88C171.018 125.973 170.725 126.053 170.405 126.12C170.098 126.2 169.792 126.24 169.485 126.24ZM173.183 126V116.28H174.823V126H173.183ZM174.023 114.28C173.703 114.28 173.436 114.187 173.223 114C173.023 113.8 172.923 113.533 172.923 113.2C172.923 112.88 173.023 112.62 173.223 112.42C173.436 112.22 173.703 112.12 174.023 112.12C174.343 112.12 174.603 112.22 174.803 112.42C175.016 112.62 175.123 112.88 175.123 113.2C175.123 113.533 175.016 113.8 174.803 114C174.603 114.187 174.343 114.28 174.023 114.28ZM178.385 126V117.62H177.065V116.38L178.385 116.28V114.74C178.385 113.753 178.612 112.973 179.065 112.4C179.532 111.813 180.252 111.52 181.225 111.52C181.532 111.52 181.825 111.553 182.105 111.62C182.385 111.673 182.632 111.747 182.845 111.84L182.485 113.1C182.125 112.94 181.758 112.86 181.385 112.86C180.478 112.86 180.025 113.487 180.025 114.74V116.28H182.085V117.62H180.025V126H178.385ZM183.945 126V116.28H185.585V126H183.945ZM184.785 114.28C184.465 114.28 184.198 114.187 183.985 114C183.785 113.8 183.685 113.533 183.685 113.2C183.685 112.88 183.785 112.62 183.985 112.42C184.198 112.22 184.465 112.12 184.785 112.12C185.105 112.12 185.365 112.22 185.565 112.42C185.778 112.62 185.885 112.88 185.885 113.2C185.885 113.533 185.778 113.8 185.565 114C185.365 114.187 185.105 114.28 184.785 114.28ZM192.707 126.24C191.853 126.24 191.08 126.04 190.387 125.64C189.693 125.24 189.147 124.66 188.747 123.9C188.347 123.14 188.147 122.227 188.147 121.16C188.147 120.067 188.36 119.14 188.787 118.38C189.227 117.62 189.8 117.04 190.507 116.64C191.227 116.24 192 116.04 192.827 116.04C193.467 116.04 194.013 116.153 194.467 116.38C194.933 116.607 195.333 116.873 195.667 117.18L194.827 118.26C194.547 118.007 194.247 117.8 193.927 117.64C193.62 117.48 193.273 117.4 192.887 117.4C192.3 117.4 191.773 117.56 191.307 117.88C190.853 118.187 190.493 118.627 190.227 119.2C189.973 119.76 189.847 120.413 189.847 121.16C189.847 122.267 190.12 123.167 190.667 123.86C191.227 124.54 191.953 124.88 192.847 124.88C193.3 124.88 193.72 124.787 194.107 124.6C194.493 124.4 194.833 124.167 195.127 123.9L195.847 125C195.407 125.387 194.92 125.693 194.387 125.92C193.853 126.133 193.293 126.24 192.707 126.24ZM197.988 126V116.28H199.628V126H197.988ZM198.828 114.28C198.508 114.28 198.241 114.187 198.028 114C197.828 113.8 197.728 113.533 197.728 113.2C197.728 112.88 197.828 112.62 198.028 112.42C198.241 112.22 198.508 112.12 198.828 112.12C199.148 112.12 199.408 112.22 199.608 112.42C199.821 112.62 199.928 112.88 199.928 113.2C199.928 113.533 199.821 113.8 199.608 114C199.408 114.187 199.148 114.28 198.828 114.28ZM205.15 126.24C204.336 126.24 203.656 126 203.11 125.52C202.576 125.027 202.31 124.347 202.31 123.48C202.31 122.413 202.783 121.6 203.73 121.04C204.69 120.467 206.203 120.067 208.27 119.84C208.27 119.427 208.21 119.033 208.09 118.66C207.983 118.287 207.783 117.987 207.49 117.76C207.21 117.52 206.803 117.4 206.27 117.4C205.71 117.4 205.183 117.507 204.69 117.72C204.196 117.933 203.756 118.173 203.37 118.44L202.73 117.3C203.183 117.007 203.736 116.727 204.39 116.46C205.056 116.18 205.776 116.04 206.55 116.04C207.736 116.04 208.596 116.407 209.13 117.14C209.663 117.86 209.93 118.827 209.93 120.04V126H208.57L208.43 124.84H208.37C207.916 125.213 207.416 125.54 206.87 125.82C206.336 126.1 205.763 126.24 205.15 126.24ZM205.63 124.92C206.096 124.92 206.536 124.807 206.95 124.58C207.363 124.353 207.803 124.033 208.27 123.62V120.92C206.656 121.12 205.523 121.42 204.87 121.82C204.23 122.22 203.91 122.733 203.91 123.36C203.91 123.907 204.076 124.307 204.41 124.56C204.743 124.8 205.15 124.92 205.63 124.92ZM214.728 126.24C214.114 126.24 213.668 126.053 213.388 125.68C213.121 125.293 212.988 124.747 212.988 124.04V111.76H214.628V124.16C214.628 124.413 214.674 124.6 214.768 124.72C214.861 124.827 214.968 124.88 215.088 124.88C215.141 124.88 215.188 124.88 215.228 124.88C215.281 124.867 215.354 124.853 215.448 124.84L215.668 126.08C215.561 126.133 215.434 126.173 215.288 126.2C215.141 126.227 214.954 126.24 214.728 126.24ZM224.969 126V114.28H221.009V112.88H230.609V114.28H226.649V126H224.969ZM235.424 126.24C234.557 126.24 233.77 126.04 233.064 125.64C232.357 125.227 231.797 124.64 231.384 123.88C230.97 123.12 230.764 122.213 230.764 121.16C230.764 120.093 230.97 119.18 231.384 118.42C231.81 117.66 232.357 117.073 233.024 116.66C233.69 116.247 234.39 116.04 235.124 116.04C236.364 116.04 237.317 116.453 237.984 117.28C238.664 118.107 239.004 119.213 239.004 120.6C239.004 120.773 238.997 120.947 238.984 121.12C238.984 121.28 238.97 121.42 238.944 121.54H232.384C232.45 122.567 232.77 123.387 233.344 124C233.93 124.613 234.69 124.92 235.624 124.92C236.09 124.92 236.517 124.853 236.904 124.72C237.304 124.573 237.684 124.387 238.044 124.16L238.624 125.24C238.21 125.507 237.737 125.74 237.204 125.94C236.684 126.14 236.09 126.24 235.424 126.24ZM232.364 120.36H237.564C237.564 119.373 237.35 118.627 236.924 118.12C236.51 117.6 235.924 117.34 235.164 117.34C234.484 117.34 233.87 117.607 233.324 118.14C232.79 118.66 232.47 119.4 232.364 120.36ZM245.246 126.24C244.392 126.24 243.619 126.04 242.926 125.64C242.232 125.24 241.686 124.66 241.286 123.9C240.886 123.14 240.686 122.227 240.686 121.16C240.686 120.067 240.899 119.14 241.326 118.38C241.766 117.62 242.339 117.04 243.046 116.64C243.766 116.24 244.539 116.04 245.366 116.04C246.006 116.04 246.552 116.153 247.006 116.38C247.472 116.607 247.872 116.873 248.206 117.18L247.366 118.26C247.086 118.007 246.786 117.8 246.466 117.64C246.159 117.48 245.812 117.4 245.426 117.4C244.839 117.4 244.312 117.56 243.846 117.88C243.392 118.187 243.032 118.627 242.766 119.2C242.512 119.76 242.386 120.413 242.386 121.16C242.386 122.267 242.659 123.167 243.206 123.86C243.766 124.54 244.492 124.88 245.386 124.88C245.839 124.88 246.259 124.787 246.646 124.6C247.032 124.4 247.372 124.167 247.666 123.9L248.386 125C247.946 125.387 247.459 125.693 246.926 125.92C246.392 126.133 245.832 126.24 245.246 126.24ZM250.527 126V111.76H252.167V115.64L252.107 117.64C252.573 117.2 253.06 116.827 253.567 116.52C254.087 116.2 254.68 116.04 255.347 116.04C256.373 116.04 257.12 116.367 257.587 117.02C258.067 117.66 258.307 118.6 258.307 119.84V126H256.667V120.06C256.667 119.153 256.52 118.493 256.227 118.08C255.933 117.667 255.467 117.46 254.827 117.46C254.333 117.46 253.887 117.587 253.487 117.84C253.1 118.093 252.66 118.467 252.167 118.96V126H250.527ZM261.406 126V116.28H262.766L262.906 117.68H262.966C263.432 117.213 263.926 116.827 264.446 116.52C264.966 116.2 265.559 116.04 266.226 116.04C267.252 116.04 267.999 116.367 268.466 117.02C268.946 117.66 269.186 118.6 269.186 119.84V126H267.546V120.06C267.546 119.153 267.399 118.493 267.106 118.08C266.812 117.667 266.346 117.46 265.706 117.46C265.212 117.46 264.766 117.587 264.366 117.84C263.979 118.093 263.539 118.467 263.046 118.96V126H261.406ZM276.123 126.24C275.336 126.24 274.596 126.04 273.903 125.64C273.223 125.24 272.67 124.66 272.243 123.9C271.83 123.14 271.623 122.227 271.623 121.16C271.623 120.067 271.83 119.14 272.243 118.38C272.67 117.62 273.223 117.04 273.903 116.64C274.596 116.24 275.336 116.04 276.123 116.04C276.923 116.04 277.663 116.24 278.343 116.64C279.023 117.04 279.57 117.62 279.983 118.38C280.41 119.14 280.623 120.067 280.623 121.16C280.623 122.227 280.41 123.14 279.983 123.9C279.57 124.66 279.023 125.24 278.343 125.64C277.663 126.04 276.923 126.24 276.123 126.24ZM276.123 124.88C276.963 124.88 277.636 124.54 278.143 123.86C278.663 123.167 278.923 122.267 278.923 121.16C278.923 120.04 278.663 119.133 278.143 118.44C277.636 117.747 276.963 117.4 276.123 117.4C275.296 117.4 274.623 117.747 274.103 118.44C273.583 119.133 273.323 120.04 273.323 121.16C273.323 122.267 273.583 123.167 274.103 123.86C274.623 124.54 275.296 124.88 276.123 124.88ZM284.923 126.24C284.31 126.24 283.863 126.053 283.583 125.68C283.316 125.293 283.183 124.747 283.183 124.04V111.76H284.823V124.16C284.823 124.413 284.87 124.6 284.963 124.72C285.056 124.827 285.163 124.88 285.283 124.88C285.336 124.88 285.383 124.88 285.423 124.88C285.476 124.867 285.55 124.853 285.643 124.84L285.863 126.08C285.756 126.133 285.63 126.173 285.483 126.2C285.336 126.227 285.15 126.24 284.923 126.24ZM292.061 126.24C291.274 126.24 290.534 126.04 289.841 125.64C289.161 125.24 288.607 124.66 288.181 123.9C287.767 123.14 287.561 122.227 287.561 121.16C287.561 120.067 287.767 119.14 288.181 118.38C288.607 117.62 289.161 117.04 289.841 116.64C290.534 116.24 291.274 116.04 292.061 116.04C292.861 116.04 293.601 116.24 294.281 116.64C294.961 117.04 295.507 117.62 295.921 118.38C296.347 119.14 296.561 120.067 296.561 121.16C296.561 122.227 296.347 123.14 295.921 123.9C295.507 124.66 294.961 125.24 294.281 125.64C293.601 126.04 292.861 126.24 292.061 126.24ZM292.061 124.88C292.901 124.88 293.574 124.54 294.081 123.86C294.601 123.167 294.861 122.267 294.861 121.16C294.861 120.04 294.601 119.133 294.081 118.44C293.574 117.747 292.901 117.4 292.061 117.4C291.234 117.4 290.561 117.747 290.041 118.44C289.521 119.133 289.261 120.04 289.261 121.16C289.261 122.267 289.521 123.167 290.041 123.86C290.561 124.54 291.234 124.88 292.061 124.88ZM302.4 130.48C301.214 130.48 300.247 130.253 299.5 129.8C298.754 129.347 298.38 128.7 298.38 127.86C298.38 127.447 298.507 127.047 298.76 126.66C299.014 126.287 299.36 125.953 299.8 125.66V125.58C299.56 125.433 299.354 125.227 299.18 124.96C299.02 124.693 298.94 124.373 298.94 124C298.94 123.587 299.054 123.227 299.28 122.92C299.507 122.613 299.747 122.373 300 122.2V122.12C299.68 121.853 299.387 121.493 299.12 121.04C298.867 120.587 298.74 120.073 298.74 119.5C298.74 118.793 298.907 118.18 299.24 117.66C299.574 117.14 300.02 116.74 300.58 116.46C301.14 116.18 301.747 116.04 302.4 116.04C302.667 116.04 302.92 116.067 303.16 116.12C303.4 116.16 303.607 116.213 303.78 116.28H307.16V117.54H305.16C305.387 117.753 305.574 118.04 305.72 118.4C305.88 118.747 305.96 119.127 305.96 119.54C305.96 120.233 305.8 120.833 305.48 121.34C305.16 121.847 304.734 122.24 304.2 122.52C303.667 122.787 303.067 122.92 302.4 122.92C301.88 122.92 301.394 122.807 300.94 122.58C300.767 122.727 300.62 122.893 300.5 123.08C300.38 123.253 300.32 123.473 300.32 123.74C300.32 124.047 300.44 124.3 300.68 124.5C300.934 124.7 301.387 124.8 302.04 124.8H303.92C305.054 124.8 305.9 124.987 306.46 125.36C307.034 125.72 307.32 126.307 307.32 127.12C307.32 127.72 307.12 128.273 306.72 128.78C306.32 129.287 305.754 129.693 305.02 130C304.287 130.32 303.414 130.48 302.4 130.48ZM302.4 121.82C302.96 121.82 303.44 121.613 303.84 121.2C304.254 120.773 304.46 120.207 304.46 119.5C304.46 118.793 304.26 118.24 303.86 117.84C303.46 117.44 302.974 117.24 302.4 117.24C301.827 117.24 301.34 117.44 300.94 117.84C300.54 118.24 300.34 118.793 300.34 119.5C300.34 120.207 300.54 120.773 300.94 121.2C301.354 121.613 301.84 121.82 302.4 121.82ZM302.64 129.34C303.574 129.34 304.32 129.133 304.88 128.72C305.44 128.32 305.72 127.867 305.72 127.36C305.72 126.907 305.547 126.593 305.2 126.42C304.867 126.247 304.387 126.16 303.76 126.16H302.08C301.894 126.16 301.687 126.147 301.46 126.12C301.247 126.093 301.034 126.053 300.82 126C300.474 126.253 300.22 126.52 300.06 126.8C299.9 127.08 299.82 127.36 299.82 127.64C299.82 128.16 300.067 128.573 300.56 128.88C301.067 129.187 301.76 129.34 302.64 129.34ZM309.652 130.18C309.438 130.18 309.232 130.16 309.032 130.12C308.845 130.08 308.672 130.033 308.512 129.98L308.832 128.68C308.938 128.707 309.058 128.733 309.192 128.76C309.325 128.8 309.452 128.82 309.572 128.82C310.118 128.82 310.572 128.62 310.932 128.22C311.292 127.833 311.572 127.34 311.772 126.74L311.992 126.02L308.092 116.28H309.792L311.772 121.66C311.918 122.073 312.072 122.52 312.232 123C312.405 123.48 312.565 123.947 312.712 124.4H312.792C312.938 123.96 313.078 123.5 313.212 123.02C313.345 122.54 313.478 122.087 313.612 121.66L315.352 116.28H316.952L313.292 126.8C313.065 127.44 312.792 128.013 312.472 128.52C312.165 129.027 311.778 129.427 311.312 129.72C310.858 130.027 310.305 130.18 309.652 130.18ZM322.991 126V112.88H324.651V118.38H330.751V112.88H332.431V126H330.751V119.82H324.651V126H322.991ZM336.038 130.18C335.825 130.18 335.618 130.16 335.418 130.12C335.232 130.08 335.058 130.033 334.898 129.98L335.218 128.68C335.325 128.707 335.445 128.733 335.578 128.76C335.712 128.8 335.838 128.82 335.958 128.82C336.505 128.82 336.958 128.62 337.318 128.22C337.678 127.833 337.958 127.34 338.158 126.74L338.378 126.02L334.478 116.28H336.178L338.158 121.66C338.305 122.073 338.458 122.52 338.618 123C338.792 123.48 338.952 123.947 339.098 124.4H339.178C339.325 123.96 339.465 123.5 339.598 123.02C339.732 122.54 339.865 122.087 339.998 121.66L341.738 116.28H343.338L339.678 126.8C339.452 127.44 339.178 128.013 338.858 128.52C338.552 129.027 338.165 129.427 337.698 129.72C337.245 130.027 336.692 130.18 336.038 130.18ZM349.514 126.24C349.061 126.24 348.588 126.133 348.094 125.92C347.614 125.693 347.161 125.387 346.734 125H346.674L346.534 126H345.214V111.76H346.854V115.64L346.814 117.4C347.254 117.013 347.734 116.693 348.254 116.44C348.788 116.173 349.321 116.04 349.854 116.04C351.121 116.04 352.081 116.487 352.734 117.38C353.388 118.273 353.714 119.473 353.714 120.98C353.714 122.087 353.514 123.033 353.114 123.82C352.728 124.607 352.214 125.207 351.574 125.62C350.948 126.033 350.261 126.24 349.514 126.24ZM349.234 124.86C350.034 124.86 350.694 124.52 351.214 123.84C351.748 123.147 352.014 122.2 352.014 121C352.014 119.933 351.814 119.073 351.414 118.42C351.028 117.753 350.374 117.42 349.454 117.42C349.041 117.42 348.621 117.533 348.194 117.76C347.768 117.987 347.321 118.313 346.854 118.74V123.84C347.281 124.213 347.701 124.48 348.114 124.64C348.541 124.787 348.914 124.86 349.234 124.86ZM356.269 126V116.28H357.629L357.769 118.04H357.829C358.162 117.427 358.569 116.94 359.049 116.58C359.529 116.22 360.042 116.04 360.589 116.04C360.976 116.04 361.322 116.107 361.629 116.24L361.309 117.68C361.149 117.627 361.002 117.587 360.869 117.56C360.736 117.533 360.569 117.52 360.369 117.52C359.956 117.52 359.522 117.687 359.069 118.02C358.629 118.353 358.242 118.933 357.909 119.76V126H356.269ZM363.203 126V116.28H364.843V126H363.203ZM364.043 114.28C363.723 114.28 363.456 114.187 363.243 114C363.043 113.8 362.943 113.533 362.943 113.2C362.943 112.88 363.043 112.62 363.243 112.42C363.456 112.22 363.723 112.12 364.043 112.12C364.363 112.12 364.623 112.22 364.823 112.42C365.036 112.62 365.143 112.88 365.143 113.2C365.143 113.533 365.036 113.8 364.823 114C364.623 114.187 364.363 114.28 364.043 114.28ZM371.444 126.24C370.231 126.24 369.258 125.8 368.524 124.92C367.791 124.027 367.424 122.773 367.424 121.16C367.424 120.107 367.618 119.2 368.004 118.44C368.404 117.667 368.924 117.073 369.564 116.66C370.218 116.247 370.911 116.04 371.644 116.04C372.204 116.04 372.691 116.14 373.104 116.34C373.518 116.54 373.938 116.813 374.364 117.16L374.284 115.5V111.76H375.944V126H374.584L374.444 124.86H374.384C374.011 125.233 373.571 125.56 373.064 125.84C372.558 126.107 372.018 126.24 371.444 126.24ZM371.804 124.86C372.658 124.86 373.484 124.413 374.284 123.52V118.44C373.871 118.067 373.471 117.807 373.084 117.66C372.711 117.5 372.324 117.42 371.924 117.42C371.404 117.42 370.931 117.58 370.504 117.9C370.091 118.207 369.758 118.64 369.504 119.2C369.251 119.747 369.124 120.393 369.124 121.14C369.124 122.3 369.358 123.213 369.824 123.88C370.291 124.533 370.951 124.86 371.804 124.86ZM385.642 118.66L385.022 120.66H388.962L388.342 118.66C388.102 117.927 387.875 117.2 387.662 116.48C387.449 115.747 387.235 115 387.022 114.24H386.942C386.742 115 386.535 115.747 386.322 116.48C386.109 117.2 385.882 117.927 385.642 118.66ZM381.642 126L386.082 112.88H387.962L392.402 126H390.622L389.382 122H384.602L383.342 126H381.642ZM396.824 126.24C395.797 126.24 395.044 125.92 394.564 125.28C394.084 124.627 393.844 123.68 393.844 122.44V116.28H395.504V122.22C395.504 123.127 395.644 123.787 395.924 124.2C396.217 124.613 396.684 124.82 397.324 124.82C397.83 124.82 398.277 124.693 398.664 124.44C399.064 124.173 399.49 123.753 399.944 123.18V116.28H401.584V126H400.224L400.084 124.48H400.024C399.57 125.013 399.09 125.44 398.584 125.76C398.077 126.08 397.49 126.24 396.824 126.24ZM407.923 126.24C406.883 126.24 406.156 125.94 405.743 125.34C405.343 124.74 405.143 123.96 405.143 123V117.62H403.703V116.38L405.223 116.28L405.423 113.56H406.803V116.28H409.423V117.62H406.803V123.02C406.803 123.62 406.909 124.087 407.123 124.42C407.349 124.74 407.743 124.9 408.303 124.9C408.476 124.9 408.663 124.873 408.863 124.82C409.063 124.753 409.243 124.693 409.403 124.64L409.723 125.88C409.456 125.973 409.163 126.053 408.843 126.12C408.536 126.2 408.229 126.24 407.923 126.24ZM415.127 126.24C414.34 126.24 413.6 126.04 412.907 125.64C412.227 125.24 411.674 124.66 411.247 123.9C410.834 123.14 410.627 122.227 410.627 121.16C410.627 120.067 410.834 119.14 411.247 118.38C411.674 117.62 412.227 117.04 412.907 116.64C413.6 116.24 414.34 116.04 415.127 116.04C415.927 116.04 416.667 116.24 417.347 116.64C418.027 117.04 418.574 117.62 418.987 118.38C419.414 119.14 419.627 120.067 419.627 121.16C419.627 122.227 419.414 123.14 418.987 123.9C418.574 124.66 418.027 125.24 417.347 125.64C416.667 126.04 415.927 126.24 415.127 126.24ZM415.127 124.88C415.967 124.88 416.64 124.54 417.147 123.86C417.667 123.167 417.927 122.267 417.927 121.16C417.927 120.04 417.667 119.133 417.147 118.44C416.64 117.747 415.967 117.4 415.127 117.4C414.3 117.4 413.627 117.747 413.107 118.44C412.587 119.133 412.327 120.04 412.327 121.16C412.327 122.267 412.587 123.167 413.107 123.86C413.627 124.54 414.3 124.88 415.127 124.88ZM422.187 126V116.28H423.547L423.687 117.68H423.747C424.174 117.213 424.64 116.827 425.147 116.52C425.654 116.2 426.194 116.04 426.767 116.04C427.514 116.04 428.094 116.207 428.507 116.54C428.934 116.86 429.247 117.313 429.447 117.9C429.954 117.353 430.467 116.907 430.987 116.56C431.507 116.213 432.06 116.04 432.647 116.04C433.647 116.04 434.387 116.367 434.867 117.02C435.36 117.66 435.607 118.6 435.607 119.84V126H433.967V120.06C433.967 119.153 433.82 118.493 433.527 118.08C433.234 117.667 432.78 117.46 432.167 117.46C431.447 117.46 430.634 117.96 429.727 118.96V126H428.087V120.06C428.087 119.153 427.94 118.493 427.647 118.08C427.354 117.667 426.894 117.46 426.267 117.46C425.547 117.46 424.734 117.96 423.827 118.96V126H422.187ZM441.009 126.24C440.196 126.24 439.516 126 438.969 125.52C438.436 125.027 438.169 124.347 438.169 123.48C438.169 122.413 438.642 121.6 439.589 121.04C440.549 120.467 442.062 120.067 444.129 119.84C444.129 119.427 444.069 119.033 443.949 118.66C443.842 118.287 443.642 117.987 443.349 117.76C443.069 117.52 442.662 117.4 442.129 117.4C441.569 117.4 441.042 117.507 440.549 117.72C440.056 117.933 439.616 118.173 439.229 118.44L438.589 117.3C439.042 117.007 439.596 116.727 440.249 116.46C440.916 116.18 441.636 116.04 442.409 116.04C443.596 116.04 444.456 116.407 444.989 117.14C445.522 117.86 445.789 118.827 445.789 120.04V126H444.429L444.289 124.84H444.229C443.776 125.213 443.276 125.54 442.729 125.82C442.196 126.1 441.622 126.24 441.009 126.24ZM441.489 124.92C441.956 124.92 442.396 124.807 442.809 124.58C443.222 124.353 443.662 124.033 444.129 123.62V120.92C442.516 121.12 441.382 121.42 440.729 121.82C440.089 122.22 439.769 122.733 439.769 123.36C439.769 123.907 439.936 124.307 440.269 124.56C440.602 124.8 441.009 124.92 441.489 124.92ZM451.634 126.24C450.594 126.24 449.867 125.94 449.454 125.34C449.054 124.74 448.854 123.96 448.854 123V117.62H447.414V116.38L448.934 116.28L449.134 113.56H450.514V116.28H453.134V117.62H450.514V123.02C450.514 123.62 450.62 124.087 450.834 124.42C451.06 124.74 451.454 124.9 452.014 124.9C452.187 124.9 452.374 124.873 452.574 124.82C452.774 124.753 452.954 124.693 453.114 124.64L453.434 125.88C453.167 125.973 452.874 126.053 452.554 126.12C452.247 126.2 451.94 126.24 451.634 126.24ZM455.331 126V116.28H456.971V126H455.331ZM456.171 114.28C455.851 114.28 455.585 114.187 455.371 114C455.171 113.8 455.071 113.533 455.071 113.2C455.071 112.88 455.171 112.62 455.371 112.42C455.585 112.22 455.851 112.12 456.171 112.12C456.491 112.12 456.751 112.22 456.951 112.42C457.165 112.62 457.271 112.88 457.271 113.2C457.271 113.533 457.165 113.8 456.951 114C456.751 114.187 456.491 114.28 456.171 114.28ZM464.033 126.24C463.247 126.24 462.507 126.04 461.813 125.64C461.133 125.24 460.58 124.66 460.153 123.9C459.74 123.14 459.533 122.227 459.533 121.16C459.533 120.067 459.74 119.14 460.153 118.38C460.58 117.62 461.133 117.04 461.813 116.64C462.507 116.24 463.247 116.04 464.033 116.04C464.833 116.04 465.573 116.24 466.253 116.64C466.933 117.04 467.48 117.62 467.893 118.38C468.32 119.14 468.533 120.067 468.533 121.16C468.533 122.227 468.32 123.14 467.893 123.9C467.48 124.66 466.933 125.24 466.253 125.64C465.573 126.04 464.833 126.24 464.033 126.24ZM464.033 124.88C464.873 124.88 465.547 124.54 466.053 123.86C466.573 123.167 466.833 122.267 466.833 121.16C466.833 120.04 466.573 119.133 466.053 118.44C465.547 117.747 464.873 117.4 464.033 117.4C463.207 117.4 462.533 117.747 462.013 118.44C461.493 119.133 461.233 120.04 461.233 121.16C461.233 122.267 461.493 123.167 462.013 123.86C462.533 124.54 463.207 124.88 464.033 124.88ZM471.093 126V116.28H472.453L472.593 117.68H472.653C473.12 117.213 473.613 116.827 474.133 116.52C474.653 116.2 475.246 116.04 475.913 116.04C476.94 116.04 477.686 116.367 478.153 117.02C478.633 117.66 478.873 118.6 478.873 119.84V126H477.233V120.06C477.233 119.153 477.086 118.493 476.793 118.08C476.5 117.667 476.033 117.46 475.393 117.46C474.9 117.46 474.453 117.587 474.053 117.84C473.666 118.093 473.226 118.467 472.733 118.96V126H471.093ZM482.171 129.52L481.151 129.04C481.924 127.773 482.497 126.407 482.871 124.94C483.257 123.46 483.451 121.96 483.451 120.44C483.451 118.92 483.257 117.427 482.871 115.96C482.497 114.48 481.924 113.107 481.151 111.84L482.171 111.36C482.997 112.693 483.644 114.1 484.111 115.58C484.577 117.06 484.811 118.68 484.811 120.44C484.811 122.2 484.577 123.82 484.111 125.3C483.644 126.767 482.997 128.173 482.171 129.52Z" fill="white"/>
<defs>
<linearGradient id="paint0_linear_0_1" x1="0" y1="-4" x2="202.851" y2="260.438" gradientUnits="userSpaceOnUse">
<stop stop-color="#7A58FF"/>
<stop offset="0.495152" stop-color="#2E4ABD"/>
<stop offset="1" stop-color="#0A72D1"/>
</linearGradient>
</defs>
</svg>
